<svg width="130" height="87" viewBox="0 0 130 87" fill="none" xmlns="http://www.w3.org/2000/svg">
<path d="M12.2148 24.36C12.2148 20.9966 9.4804 18.27 6.10738 18.27C2.73437 18.27 0 20.9966 0 24.36V43.5C0 46.8634 2.73437 49.59 6.10738 49.59C9.4804 49.59 12.2148 46.8634 12.2148 43.5V24.36Z" fill="#B91F33"/>
<path d="M130 24.36C130 20.9966 127.266 18.27 123.893 18.27C120.52 18.27 117.785 20.9966 117.785 24.36V43.5C117.785 46.8634 120.52 49.59 123.893 49.59C127.266 49.59 130 46.8634 130 43.5V24.36Z" fill="#B91F33"/>
<path d="M70.6712 24.36C70.6712 20.9966 67.9368 18.27 64.5638 18.27C61.1908 18.27 58.4564 20.9966 58.4564 24.36V43.5C58.4564 46.8634 61.1908 49.59 64.5638 49.59C67.9368 49.59 70.6712 46.8634 70.6712 43.5V24.36Z" fill="#B91F33"/>
<path d="M31.4094 16.53C31.4094 13.1666 28.675 10.44 25.302 10.44C21.929 10.44 19.1946 13.1666 19.1946 16.53V51.33C19.1946 54.6934 21.929 57.42 25.302 57.42C28.675 57.42 31.4094 54.6934 31.4094 51.33V16.53Z" fill="#B91F33"/>
<path d="M109.933 16.53C109.933 13.1666 107.199 10.44 103.826 10.44C100.453 10.44 97.7181 13.1666 97.7181 16.53V51.33C97.7181 54.6934 100.453 57.42 103.826 57.42C107.199 57.42 109.933 54.6934 109.933 51.33V16.53Z" fill="#B91F33"/>
<path d="M51.4765 6.09C51.4765 2.72659 48.7421 0 45.3691 0C41.9961 0 39.2617 2.72659 39.2617 6.09V61.77C39.2617 65.1334 41.9961 67.86 45.3691 67.86C48.7421 67.86 51.4765 65.1334 51.4765 61.77V6.09Z" fill="#B91F33"/>
<path d="M90.7383 6.09C90.7383 2.72659 88.0039 0 84.6309 0C81.2579 0 78.5235 2.72659 78.5235 6.09V61.77C78.5235 65.1334 81.2579 67.86 84.6309 67.86C88.0039 67.86 90.7383 65.1334 90.7383 61.77V6.09Z" fill="#B91F33"/>
<path d="M21.1101 71.34H25.2371V87H21.1101V80.8043H18.0867V87H13.9597V71.34H18.0867V77.7552H21.1101V71.34Z" fill="white"/>
<path d="M34.9981 87L34.5182 84.6583H30.8231L30.3192 87H26.1922L30.1513 71.34H35.262L39.2211 87H34.9981ZM31.4709 81.6337H33.8704L32.6946 75.9989L31.4709 81.6337Z" fill="white"/>
<path d="M44.3792 81.4385V87H40.1801V71.34H47.3065C49.6579 71.34 50.8337 72.3482 50.8337 74.3646V78.4138C50.8337 79.9586 50.1458 80.91 48.7701 81.2677L51.6014 87H47.0905L44.6431 81.4385H44.3792ZM46.0347 74.3891H44.3792V78.5358H46.0347C46.4347 78.5358 46.6347 78.3569 46.6347 77.9991V74.9257C46.6347 74.568 46.4347 74.3891 46.0347 74.3891Z" fill="white"/>
<path d="M52.7454 71.34H59.8236C62.1752 71.34 63.3508 72.3482 63.3508 74.3646V83.9754C63.3508 85.9917 62.1752 87 59.8236 87H52.7454V71.34ZM59.1518 83.6582V74.6818C59.1518 74.324 58.9519 74.1451 58.552 74.1451H56.9444V84.1949H58.552C58.9519 84.1949 59.1518 84.016 59.1518 83.6582Z" fill="white"/>
<path d="M80.3267 77.1942H76.1276V74.6818C76.1276 74.324 75.9277 74.1451 75.5278 74.1451H74.688C74.2881 74.1451 74.0881 74.324 74.0881 74.6818V83.6582C74.0881 84.016 74.2881 84.1949 74.688 84.1949H75.5278C75.9277 84.1949 76.1276 84.016 76.1276 83.6582V81.2434H80.3267V83.9754C80.3267 85.9917 79.151 87 76.7995 87H73.4163C71.0649 87 69.8891 85.9917 69.8891 83.9754V74.3646C69.8891 72.3482 71.0649 71.34 73.4163 71.34H76.7995C79.151 71.34 80.3267 72.3482 80.3267 74.3646V77.1942Z" fill="white"/>
<path d="M85.3443 71.34H88.8956C91.2469 71.34 92.423 72.3482 92.423 74.3646V83.9754C92.423 85.9917 91.2469 87 88.8956 87H85.3443C82.9929 87 81.8171 85.9917 81.8171 83.9754V74.3646C81.8171 72.3482 82.9929 71.34 85.3443 71.34ZM88.2237 83.4143V74.9257C88.2237 74.568 88.024 74.3891 87.6235 74.3891H86.616C86.2161 74.3891 86.0162 74.568 86.0162 74.9257V83.4143C86.0162 83.772 86.2161 83.9509 86.616 83.9509H87.6235C88.024 83.9509 88.2237 83.772 88.2237 83.4143Z" fill="white"/>
<path d="M98.4606 81.4385V87H94.2614V71.34H101.388C103.739 71.34 104.914 72.3482 104.914 74.3646V78.4138C104.914 79.9586 104.227 80.91 102.851 81.2677L105.682 87H101.171L98.7241 81.4385H98.4606ZM100.116 74.3891H98.4606V78.5358H100.116C100.516 78.5358 100.716 78.3569 100.716 77.9991V74.9257C100.716 74.568 100.516 74.3891 100.116 74.3891Z" fill="white"/>
<path d="M110.785 83.9509H116.04V87H106.586V71.34H115.824V74.3891H110.785V77.5845H115.129V80.6335H110.785V83.9509Z" fill="white"/>
</svg>
